# MagicaVoxel @ ephtracy

# material
mtllib eagle.mtl
usemtl palette

# normals
vn -1 0 0
vn 1 0 0
vn 0 0 1
vn 0 0 -1
vn 0 -1 0
vn 0 1 0

# texcoords
vt 0.0214844 0.5
vt 0.537109 0.5
vt 0.958984 0.5

# verts
v -10 2 5.5
v -10 2 0.5
v -10 4 5.5
v -10 4 0.5
v -2 0 7.5
v -2 0 5.5
v -2 0 -3.5
v -2 0 -6.5
v -2 2 5.5
v -2 2 0.5
v -2 2 -6.5
v -2 2 -8.5
v -2 3 7.5
v -2 3 5.5
v -2 3 0.5
v -2 3 -3.5
v -2 3 -8.5
v -1 0 8.5
v -1 0 7.5
v -1 2 8.5
v -1 2 7.5
v 9 3 5.5
v 9 3 0.5
v 9 4 5.5
v 9 4 0.5
v -9 3 5.5
v -9 3 0.5
v -9 4 5.5
v -9 4 0.5
v 1 0 8.5
v 1 0 7.5
v 1 2 8.5
v 1 2 7.5
v 2 0 7.5
v 2 0 5.5
v 2 0 -3.5
v 2 0 -6.5
v 2 2 5.5
v 2 2 0.5
v 2 2 -6.5
v 2 2 -8.5
v 2 3 7.5
v 2 3 5.5
v 2 3 0.5
v 2 3 -3.5
v 2 3 -8.5
v 10 2 5.5
v 10 2 0.5
v 10 4 5.5
v 10 4 0.5
v -1 0 8.5
v -1 2 8.5
v 1 0 8.5
v 1 2 8.5
v -2 0 7.5
v -2 3 7.5
v -1 0 7.5
v -1 2 7.5
v 1 0 7.5
v 1 2 7.5
v 2 0 7.5
v 2 3 7.5
v -10 2 5.5
v -10 4 5.5
v -9 3 5.5
v -9 4 5.5
v -2 2 5.5
v -2 3 5.5
v 2 2 5.5
v 2 3 5.5
v 9 3 5.5
v 9 4 5.5
v 10 2 5.5
v 10 4 5.5
v -10 2 0.5
v -10 4 0.5
v -9 3 0.5
v -9 4 0.5
v -2 2 0.5
v -2 3 0.5
v 2 2 0.5
v 2 3 0.5
v 9 3 0.5
v 9 4 0.5
v 10 2 0.5
v 10 4 0.5
v -2 0 -6.5
v -2 2 -6.5
v 2 0 -6.5
v 2 2 -6.5
v -2 2 -8.5
v -2 3 -8.5
v 2 2 -8.5
v 2 3 -8.5
v -1 0 8.5
v 1 0 8.5
v -2 0 7.5
v -1 0 7.5
v 1 0 7.5
v 2 0 7.5
v -2 0 5.5
v 2 0 5.5
v -2 0 -3.5
v 2 0 -3.5
v -2 0 -6.5
v 2 0 -6.5
v -10 2 5.5
v -2 2 5.5
v 2 2 5.5
v 10 2 5.5
v -10 2 0.5
v -2 2 0.5
v 2 2 0.5
v 10 2 0.5
v -2 2 -6.5
v 2 2 -6.5
v -2 2 -8.5
v 2 2 -8.5
v -1 2 8.5
v 1 2 8.5
v -1 2 7.5
v 1 2 7.5
v -2 3 7.5
v 2 3 7.5
v -9 3 5.5
v -2 3 5.5
v 2 3 5.5
v 9 3 5.5
v -2 3 4.5
v 2 3 4.5
v -9 3 0.5
v -2 3 0.5
v 2 3 0.5
v 9 3 0.5
v -2 3 -3.5
v -1 3 -3.5
v 1 3 -3.5
v 2 3 -3.5
v -1 3 -4.5
v 1 3 -4.5
v -2 3 -8.5
v 2 3 -8.5
v -10 4 5.5
v -9 4 5.5
v 9 4 5.5
v 10 4 5.5
v -10 4 0.5
v -9 4 0.5
v 9 4 0.5
v 10 4 0.5

# faces
f 3/2/1 2/2/1 1/2/1
f 4/2/1 2/2/1 3/2/1
f 9/3/1 6/3/1 5/3/1
f 9/2/1 7/2/1 6/2/1
f 10/2/1 7/2/1 9/2/1
f 11/3/1 8/3/1 7/3/1
f 13/3/1 9/3/1 5/3/1
f 14/3/1 9/3/1 13/3/1
f 15/2/1 7/2/1 10/2/1
f 16/3/1 12/3/1 11/3/1
f 16/2/1 7/2/1 15/2/1
f 16/3/1 11/3/1 7/3/1
f 17/3/1 12/3/1 16/3/1
f 20/1/1 19/1/1 18/1/1
f 21/1/1 19/1/1 20/1/1
f 24/2/1 23/2/1 22/2/1
f 25/2/1 23/2/1 24/2/1
f 26/2/2 27/2/2 28/2/2
f 28/2/2 27/2/2 29/2/2
f 30/1/2 31/1/2 32/1/2
f 32/1/2 31/1/2 33/1/2
f 34/3/2 35/3/2 38/3/2
f 35/2/2 36/2/2 38/2/2
f 38/2/2 36/2/2 39/2/2
f 36/3/2 37/3/2 40/3/2
f 34/3/2 38/3/2 42/3/2
f 42/3/2 38/3/2 43/3/2
f 39/2/2 36/2/2 44/2/2
f 40/3/2 41/3/2 45/3/2
f 44/2/2 36/2/2 45/2/2
f 36/3/2 40/3/2 45/3/2
f 45/3/2 41/3/2 46/3/2
f 47/2/2 48/2/2 49/2/2
f 49/2/2 48/2/2 50/2/2
f 53/1/3 52/1/3 51/1/3
f 54/1/3 52/1/3 53/1/3
f 57/3/3 56/3/3 55/3/3
f 58/3/3 56/3/3 57/3/3
f 60/3/3 56/3/3 58/3/3
f 61/3/3 60/3/3 59/3/3
f 62/3/3 56/3/3 60/3/3
f 62/3/3 60/3/3 61/3/3
f 65/2/3 64/2/3 63/2/3
f 66/2/3 64/2/3 65/2/3
f 67/2/3 65/2/3 63/2/3
f 68/2/3 65/2/3 67/2/3
f 71/2/3 70/2/3 69/2/3
f 73/2/3 71/2/3 69/2/3
f 73/2/3 72/2/3 71/2/3
f 74/2/3 72/2/3 73/2/3
f 75/2/4 76/2/4 77/2/4
f 77/2/4 76/2/4 78/2/4
f 75/2/4 77/2/4 79/2/4
f 79/2/4 77/2/4 80/2/4
f 81/2/4 82/2/4 83/2/4
f 81/2/4 83/2/4 85/2/4
f 83/2/4 84/2/4 85/2/4
f 85/2/4 84/2/4 86/2/4
f 87/3/4 88/3/4 89/3/4
f 89/3/4 88/3/4 90/3/4
f 91/3/4 92/3/4 93/3/4
f 93/3/4 92/3/4 94/3/4
f 98/1/5 96/1/5 95/1/5
f 99/1/5 96/1/5 98/1/5
f 101/3/5 98/3/5 97/3/5
f 101/3/5 100/3/5 99/3/5
f 101/3/5 99/3/5 98/3/5
f 102/3/5 100/3/5 101/3/5
f 103/2/5 102/2/5 101/2/5
f 104/2/5 102/2/5 103/2/5
f 105/3/5 104/3/5 103/3/5
f 106/3/5 104/3/5 105/3/5
f 111/2/5 108/2/5 107/2/5
f 112/2/5 108/2/5 111/2/5
f 113/2/5 110/2/5 109/2/5
f 114/2/5 110/2/5 113/2/5
f 117/3/5 116/3/5 115/3/5
f 118/3/5 116/3/5 117/3/5
f 119/1/6 120/1/6 121/1/6
f 121/1/6 120/1/6 122/1/6
f 123/3/6 124/3/6 126/3/6
f 126/3/6 124/3/6 127/3/6
f 125/2/6 126/2/6 129/2/6
f 126/3/6 127/3/6 129/3/6
f 127/2/6 128/2/6 130/2/6
f 129/3/6 127/3/6 130/3/6
f 125/2/6 129/2/6 131/2/6
f 129/2/6 130/2/6 131/2/6
f 131/2/6 130/2/6 132/2/6
f 130/2/6 128/2/6 133/2/6
f 132/2/6 130/2/6 133/2/6
f 133/2/6 128/2/6 134/2/6
f 132/2/6 133/2/6 135/2/6
f 135/2/6 133/2/6 136/2/6
f 136/2/6 133/2/6 137/2/6
f 137/2/6 133/2/6 138/2/6
f 135/3/6 136/3/6 139/3/6
f 136/2/6 137/2/6 139/2/6
f 137/3/6 138/3/6 140/3/6
f 139/2/6 137/2/6 140/2/6
f 135/3/6 139/3/6 141/3/6
f 139/3/6 140/3/6 141/3/6
f 140/3/6 138/3/6 142/3/6
f 141/3/6 140/3/6 142/3/6
f 143/2/6 144/2/6 147/2/6
f 147/2/6 144/2/6 148/2/6
f 145/2/6 146/2/6 149/2/6
f 149/2/6 146/2/6 150/2/6
