# MagicaVoxel @ ephtracy

# material
mtllib trainsignON2.mtl
usemtl palette

# normals
vn -1 0 0
vn 1 0 0
vn 0 0 1
vn 0 0 -1
vn 0 -1 0
vn 0 1 0

# texcoords
vt 0.845703 0.5
vt 0.853516 0.5
vt 0.869141 0.5
vt 0.966797 0.5

# verts
v -1 0 0.5
v -1 0 -0.5
v -1 1 0.5
v -1 1 -0.5
v -1 2 0.5
v -1 2 -0.5
v -1 3 0.5
v -1 3 -0.5
v -1 4 0.5
v -1 4 -0.5
v -1 5 0.5
v -1 5 -0.5
v -1 6 0.5
v -1 6 -0.5
v -1 7 0.5
v -1 7 -0.5
v -1 8 2.5
v -1 8 1.5
v -1 8 0.5
v -1 8 -0.5
v -1 8 -1.5
v -1 8 -2.5
v -1 9 2.5
v -1 9 1.5
v -1 9 0.5
v -1 9 -0.5
v -1 9 -1.5
v -1 9 -2.5
v 0 0 0.5
v 0 0 -0.5
v 0 1 0.5
v 0 1 -0.5
v 0 2 0.5
v 0 2 -0.5
v 0 3 0.5
v 0 3 -0.5
v 0 4 0.5
v 0 4 -0.5
v 0 5 0.5
v 0 5 -0.5
v 0 6 0.5
v 0 6 -0.5
v 0 7 0.5
v 0 7 -0.5
v 0 8 1.5
v 0 8 0.5
v 0 8 -0.5
v 0 8 -1.5
v 0 9 1.5
v 0 9 0.5
v 0 9 -0.5
v 0 9 -1.5
v 1 8 2.5
v 1 8 1.5
v 1 8 -1.5
v 1 8 -2.5
v 1 9 2.5
v 1 9 1.5
v 1 9 -1.5
v 1 9 -2.5
v -1 8 2.5
v -1 9 2.5
v 0 8 2.5
v 0 9 2.5
v 1 8 2.5
v 1 9 2.5
v -1 0 0.5
v -1 1 0.5
v -1 2 0.5
v -1 3 0.5
v -1 4 0.5
v -1 5 0.5
v -1 6 0.5
v -1 7 0.5
v -1 8 0.5
v 0 0 0.5
v 0 1 0.5
v 0 2 0.5
v 0 3 0.5
v 0 4 0.5
v 0 5 0.5
v 0 6 0.5
v 0 7 0.5
v 0 8 0.5
v 0 8 -1.5
v 0 9 -1.5
v 1 8 -1.5
v 1 9 -1.5
v 0 8 1.5
v 0 9 1.5
v 1 8 1.5
v 1 9 1.5
v -1 0 -0.5
v -1 1 -0.5
v -1 2 -0.5
v -1 3 -0.5
v -1 4 -0.5
v -1 5 -0.5
v -1 6 -0.5
v -1 7 -0.5
v -1 8 -0.5
v 0 0 -0.5
v 0 1 -0.5
v 0 2 -0.5
v 0 3 -0.5
v 0 4 -0.5
v 0 5 -0.5
v 0 6 -0.5
v 0 7 -0.5
v 0 8 -0.5
v -1 8 -2.5
v -1 9 -2.5
v 0 8 -2.5
v 0 9 -2.5
v 1 8 -2.5
v 1 9 -2.5
v -1 0 0.5
v 0 0 0.5
v -1 0 -0.5
v 0 0 -0.5
v -1 8 2.5
v 0 8 2.5
v 1 8 2.5
v -1 8 1.5
v 0 8 1.5
v 1 8 1.5
v -1 8 0.5
v 0 8 0.5
v -1 8 -0.5
v 0 8 -0.5
v -1 8 -1.5
v 0 8 -1.5
v 1 8 -1.5
v -1 8 -2.5
v 0 8 -2.5
v 1 8 -2.5
v -1 9 2.5
v 0 9 2.5
v 1 9 2.5
v -1 9 1.5
v 0 9 1.5
v 1 9 1.5
v -1 9 0.5
v 0 9 0.5
v -1 9 -0.5
v 0 9 -0.5
v -1 9 -1.5
v 0 9 -1.5
v 1 9 -1.5
v -1 9 -2.5
v 0 9 -2.5
v 1 9 -2.5

# faces
f 3/2/1 2/2/1 1/2/1
f 4/2/1 2/2/1 3/2/1
f 5/4/1 4/4/1 3/4/1
f 6/4/1 4/4/1 5/4/1
f 7/2/1 6/2/1 5/2/1
f 8/2/1 6/2/1 7/2/1
f 9/4/1 8/4/1 7/4/1
f 10/4/1 8/4/1 9/4/1
f 11/2/1 10/2/1 9/2/1
f 12/2/1 10/2/1 11/2/1
f 13/4/1 12/4/1 11/4/1
f 14/4/1 12/4/1 13/4/1
f 15/2/1 14/2/1 13/2/1
f 16/2/1 14/2/1 15/2/1
f 19/4/1 16/4/1 15/4/1
f 20/4/1 16/4/1 19/4/1
f 23/2/1 18/2/1 17/2/1
f 24/4/1 19/4/1 18/4/1
f 24/2/1 18/2/1 23/2/1
f 25/2/1 20/2/1 19/2/1
f 25/4/1 19/4/1 24/4/1
f 26/4/1 21/4/1 20/4/1
f 26/2/1 20/2/1 25/2/1
f 27/2/1 22/2/1 21/2/1
f 27/4/1 21/4/1 26/4/1
f 28/2/1 22/2/1 27/2/1
f 29/2/2 30/2/2 31/2/2
f 31/2/2 30/2/2 32/2/2
f 31/4/2 32/4/2 33/4/2
f 33/4/2 32/4/2 34/4/2
f 33/2/2 34/2/2 35/2/2
f 35/2/2 34/2/2 36/2/2
f 35/4/2 36/4/2 37/4/2
f 37/4/2 36/4/2 38/4/2
f 37/2/2 38/2/2 39/2/2
f 39/2/2 38/2/2 40/2/2
f 39/4/2 40/4/2 41/4/2
f 41/4/2 40/4/2 42/4/2
f 41/2/2 42/2/2 43/2/2
f 43/2/2 42/2/2 44/2/2
f 43/4/2 44/4/2 46/4/2
f 46/4/2 44/4/2 47/4/2
f 45/4/2 46/4/2 49/4/2
f 46/2/2 47/2/2 50/2/2
f 49/4/2 46/4/2 50/4/2
f 47/4/2 48/4/2 51/4/2
f 50/2/2 47/2/2 51/2/2
f 51/4/2 48/4/2 52/4/2
f 53/1/2 54/1/2 57/1/2
f 57/1/2 54/1/2 58/1/2
f 55/3/2 56/3/2 59/3/2
f 59/3/2 56/3/2 60/3/2
f 63/2/3 62/2/3 61/2/3
f 64/2/3 62/2/3 63/2/3
f 65/1/3 64/1/3 63/1/3
f 66/1/3 64/1/3 65/1/3
f 76/2/3 68/2/3 67/2/3
f 77/4/3 69/4/3 68/4/3
f 77/2/3 68/2/3 76/2/3
f 78/2/3 70/2/3 69/2/3
f 78/4/3 69/4/3 77/4/3
f 79/4/3 71/4/3 70/4/3
f 79/2/3 70/2/3 78/2/3
f 80/2/3 72/2/3 71/2/3
f 80/4/3 71/4/3 79/4/3
f 81/4/3 73/4/3 72/4/3
f 81/2/3 72/2/3 80/2/3
f 82/2/3 74/2/3 73/2/3
f 82/4/3 73/4/3 81/4/3
f 83/4/3 75/4/3 74/4/3
f 83/2/3 74/2/3 82/2/3
f 84/4/3 75/4/3 83/4/3
f 87/3/3 86/3/3 85/3/3
f 88/3/3 86/3/3 87/3/3
f 89/1/4 90/1/4 91/1/4
f 91/1/4 90/1/4 92/1/4
f 93/2/4 94/2/4 102/2/4
f 94/4/4 95/4/4 103/4/4
f 102/2/4 94/2/4 103/2/4
f 95/2/4 96/2/4 104/2/4
f 103/4/4 95/4/4 104/4/4
f 96/4/4 97/4/4 105/4/4
f 104/2/4 96/2/4 105/2/4
f 97/2/4 98/2/4 106/2/4
f 105/4/4 97/4/4 106/4/4
f 98/4/4 99/4/4 107/4/4
f 106/2/4 98/2/4 107/2/4
f 99/2/4 100/2/4 108/2/4
f 107/4/4 99/4/4 108/4/4
f 100/4/4 101/4/4 109/4/4
f 108/2/4 100/2/4 109/2/4
f 109/4/4 101/4/4 110/4/4
f 111/2/4 112/2/4 113/2/4
f 113/2/4 112/2/4 114/2/4
f 113/3/4 114/3/4 115/3/4
f 115/3/4 114/3/4 116/3/4
f 119/2/5 118/2/5 117/2/5
f 120/2/5 118/2/5 119/2/5
f 124/2/5 122/2/5 121/2/5
f 125/1/5 123/1/5 122/1/5
f 125/2/5 122/2/5 124/2/5
f 126/1/5 123/1/5 125/1/5
f 127/4/5 125/4/5 124/4/5
f 128/4/5 125/4/5 127/4/5
f 131/4/5 130/4/5 129/4/5
f 132/4/5 130/4/5 131/4/5
f 134/2/5 132/2/5 131/2/5
f 135/3/5 133/3/5 132/3/5
f 135/2/5 132/2/5 134/2/5
f 136/3/5 133/3/5 135/3/5
f 137/2/6 138/2/6 140/2/6
f 138/1/6 139/1/6 141/1/6
f 140/2/6 138/2/6 141/2/6
f 141/1/6 139/1/6 142/1/6
f 140/4/6 141/4/6 143/4/6
f 143/4/6 141/4/6 144/4/6
f 143/2/6 144/2/6 145/2/6
f 145/2/6 144/2/6 146/2/6
f 145/4/6 146/4/6 147/4/6
f 147/4/6 146/4/6 148/4/6
f 147/2/6 148/2/6 150/2/6
f 148/3/6 149/3/6 151/3/6
f 150/2/6 148/2/6 151/2/6
f 151/3/6 149/3/6 152/3/6
