# MagicaVoxel @ ephtracy

# material
mtllib trainsignOFF.mtl
usemtl palette

# normals
vn -1 0 0
vn 1 0 0
vn 0 0 1
vn 0 0 -1
vn 0 -1 0
vn 0 1 0

# texcoords
vt 0.853516 0.5
vt 0.869141 0.5
vt 0.966797 0.5

# verts
v -1 0 0.5
v -1 0 -0.5
v -1 1 0.5
v -1 1 -0.5
v -1 2 0.5
v -1 2 -0.5
v -1 3 0.5
v -1 3 -0.5
v -1 4 0.5
v -1 4 -0.5
v -1 5 0.5
v -1 5 -0.5
v -1 6 0.5
v -1 6 -0.5
v -1 7 0.5
v -1 7 -0.5
v -1 8 2.5
v -1 8 1.5
v -1 8 0.5
v -1 8 -0.5
v -1 8 -1.5
v -1 8 -2.5
v -1 9 2.5
v -1 9 1.5
v -1 9 0.5
v -1 9 -0.5
v -1 9 -1.5
v -1 9 -2.5
v 0 0 0.5
v 0 0 -0.5
v 0 1 0.5
v 0 1 -0.5
v 0 2 0.5
v 0 2 -0.5
v 0 3 0.5
v 0 3 -0.5
v 0 4 0.5
v 0 4 -0.5
v 0 5 0.5
v 0 5 -0.5
v 0 6 0.5
v 0 6 -0.5
v 0 7 0.5
v 0 7 -0.5
v 0 8 1.5
v 0 8 0.5
v 0 8 -0.5
v 0 8 -1.5
v 0 9 1.5
v 0 9 0.5
v 0 9 -0.5
v 0 9 -1.5
v 1 8 2.5
v 1 8 1.5
v 1 8 -1.5
v 1 8 -2.5
v 1 9 2.5
v 1 9 1.5
v 1 9 -1.5
v 1 9 -2.5
v -1 8 2.5
v -1 9 2.5
v 0 8 2.5
v 0 9 2.5
v 1 8 2.5
v 1 9 2.5
v -1 0 0.5
v -1 1 0.5
v -1 2 0.5
v -1 3 0.5
v -1 4 0.5
v -1 5 0.5
v -1 6 0.5
v -1 7 0.5
v -1 8 0.5
v 0 0 0.5
v 0 1 0.5
v 0 2 0.5
v 0 3 0.5
v 0 4 0.5
v 0 5 0.5
v 0 6 0.5
v 0 7 0.5
v 0 8 0.5
v 0 8 -1.5
v 0 9 -1.5
v 1 8 -1.5
v 1 9 -1.5
v 0 8 1.5
v 0 9 1.5
v 1 8 1.5
v 1 9 1.5
v -1 0 -0.5
v -1 1 -0.5
v -1 2 -0.5
v -1 3 -0.5
v -1 4 -0.5
v -1 5 -0.5
v -1 6 -0.5
v -1 7 -0.5
v -1 8 -0.5
v 0 0 -0.5
v 0 1 -0.5
v 0 2 -0.5
v 0 3 -0.5
v 0 4 -0.5
v 0 5 -0.5
v 0 6 -0.5
v 0 7 -0.5
v 0 8 -0.5
v -1 8 -2.5
v -1 9 -2.5
v 0 8 -2.5
v 0 9 -2.5
v 1 8 -2.5
v 1 9 -2.5
v -1 0 0.5
v 0 0 0.5
v -1 0 -0.5
v 0 0 -0.5
v -1 8 2.5
v 0 8 2.5
v 1 8 2.5
v -1 8 1.5
v 0 8 1.5
v 1 8 1.5
v -1 8 0.5
v 0 8 0.5
v -1 8 -0.5
v 0 8 -0.5
v -1 8 -1.5
v 0 8 -1.5
v 1 8 -1.5
v -1 8 -2.5
v 0 8 -2.5
v 1 8 -2.5
v -1 9 2.5
v 0 9 2.5
v 1 9 2.5
v -1 9 1.5
v 0 9 1.5
v 1 9 1.5
v -1 9 0.5
v 0 9 0.5
v -1 9 -0.5
v 0 9 -0.5
v -1 9 -1.5
v 0 9 -1.5
v 1 9 -1.5
v -1 9 -2.5
v 0 9 -2.5
v 1 9 -2.5

# faces
f 3/1/1 2/1/1 1/1/1
f 4/1/1 2/1/1 3/1/1
f 5/3/1 4/3/1 3/3/1
f 6/3/1 4/3/1 5/3/1
f 7/1/1 6/1/1 5/1/1
f 8/1/1 6/1/1 7/1/1
f 9/3/1 8/3/1 7/3/1
f 10/3/1 8/3/1 9/3/1
f 11/1/1 10/1/1 9/1/1
f 12/1/1 10/1/1 11/1/1
f 13/3/1 12/3/1 11/3/1
f 14/3/1 12/3/1 13/3/1
f 15/1/1 14/1/1 13/1/1
f 16/1/1 14/1/1 15/1/1
f 19/3/1 16/3/1 15/3/1
f 20/3/1 16/3/1 19/3/1
f 23/1/1 18/1/1 17/1/1
f 24/3/1 19/3/1 18/3/1
f 24/1/1 18/1/1 23/1/1
f 25/1/1 20/1/1 19/1/1
f 25/3/1 19/3/1 24/3/1
f 26/3/1 21/3/1 20/3/1
f 26/1/1 20/1/1 25/1/1
f 27/1/1 22/1/1 21/1/1
f 27/3/1 21/3/1 26/3/1
f 28/1/1 22/1/1 27/1/1
f 29/1/2 30/1/2 31/1/2
f 31/1/2 30/1/2 32/1/2
f 31/3/2 32/3/2 33/3/2
f 33/3/2 32/3/2 34/3/2
f 33/1/2 34/1/2 35/1/2
f 35/1/2 34/1/2 36/1/2
f 35/3/2 36/3/2 37/3/2
f 37/3/2 36/3/2 38/3/2
f 37/1/2 38/1/2 39/1/2
f 39/1/2 38/1/2 40/1/2
f 39/3/2 40/3/2 41/3/2
f 41/3/2 40/3/2 42/3/2
f 41/1/2 42/1/2 43/1/2
f 43/1/2 42/1/2 44/1/2
f 43/3/2 44/3/2 46/3/2
f 46/3/2 44/3/2 47/3/2
f 45/3/2 46/3/2 49/3/2
f 46/1/2 47/1/2 50/1/2
f 49/3/2 46/3/2 50/3/2
f 47/3/2 48/3/2 51/3/2
f 50/1/2 47/1/2 51/1/2
f 51/3/2 48/3/2 52/3/2
f 53/2/2 54/2/2 57/2/2
f 57/2/2 54/2/2 58/2/2
f 55/2/2 56/2/2 59/2/2
f 59/2/2 56/2/2 60/2/2
f 63/1/3 62/1/3 61/1/3
f 64/1/3 62/1/3 63/1/3
f 65/2/3 64/2/3 63/2/3
f 66/2/3 64/2/3 65/2/3
f 76/1/3 68/1/3 67/1/3
f 77/3/3 69/3/3 68/3/3
f 77/1/3 68/1/3 76/1/3
f 78/1/3 70/1/3 69/1/3
f 78/3/3 69/3/3 77/3/3
f 79/3/3 71/3/3 70/3/3
f 79/1/3 70/1/3 78/1/3
f 80/1/3 72/1/3 71/1/3
f 80/3/3 71/3/3 79/3/3
f 81/3/3 73/3/3 72/3/3
f 81/1/3 72/1/3 80/1/3
f 82/1/3 74/1/3 73/1/3
f 82/3/3 73/3/3 81/3/3
f 83/3/3 75/3/3 74/3/3
f 83/1/3 74/1/3 82/1/3
f 84/3/3 75/3/3 83/3/3
f 87/2/3 86/2/3 85/2/3
f 88/2/3 86/2/3 87/2/3
f 89/2/4 90/2/4 91/2/4
f 91/2/4 90/2/4 92/2/4
f 93/1/4 94/1/4 102/1/4
f 94/3/4 95/3/4 103/3/4
f 102/1/4 94/1/4 103/1/4
f 95/1/4 96/1/4 104/1/4
f 103/3/4 95/3/4 104/3/4
f 96/3/4 97/3/4 105/3/4
f 104/1/4 96/1/4 105/1/4
f 97/1/4 98/1/4 106/1/4
f 105/3/4 97/3/4 106/3/4
f 98/3/4 99/3/4 107/3/4
f 106/1/4 98/1/4 107/1/4
f 99/1/4 100/1/4 108/1/4
f 107/3/4 99/3/4 108/3/4
f 100/3/4 101/3/4 109/3/4
f 108/1/4 100/1/4 109/1/4
f 109/3/4 101/3/4 110/3/4
f 111/1/4 112/1/4 113/1/4
f 113/1/4 112/1/4 114/1/4
f 113/2/4 114/2/4 115/2/4
f 115/2/4 114/2/4 116/2/4
f 119/1/5 118/1/5 117/1/5
f 120/1/5 118/1/5 119/1/5
f 124/1/5 122/1/5 121/1/5
f 125/2/5 123/2/5 122/2/5
f 125/1/5 122/1/5 124/1/5
f 126/2/5 123/2/5 125/2/5
f 127/3/5 125/3/5 124/3/5
f 128/3/5 125/3/5 127/3/5
f 131/3/5 130/3/5 129/3/5
f 132/3/5 130/3/5 131/3/5
f 134/1/5 132/1/5 131/1/5
f 135/2/5 133/2/5 132/2/5
f 135/1/5 132/1/5 134/1/5
f 136/2/5 133/2/5 135/2/5
f 137/1/6 138/1/6 140/1/6
f 138/2/6 139/2/6 141/2/6
f 140/1/6 138/1/6 141/1/6
f 141/2/6 139/2/6 142/2/6
f 140/3/6 141/3/6 143/3/6
f 143/3/6 141/3/6 144/3/6
f 143/1/6 144/1/6 145/1/6
f 145/1/6 144/1/6 146/1/6
f 145/3/6 146/3/6 147/3/6
f 147/3/6 146/3/6 148/3/6
f 147/1/6 148/1/6 150/1/6
f 148/2/6 149/2/6 151/2/6
f 150/1/6 148/1/6 151/1/6
f 151/2/6 149/2/6 152/2/6
