# MagicaVoxel @ ephtracy

# material
mtllib train.mtl
usemtl palette

# normals
vn -1 0 0
vn 1 0 0
vn 0 0 1
vn 0 0 -1
vn 0 -1 0
vn 0 1 0

# texcoords
vt 0.587891 0.5
vt 0.955078 0.5
vt 0.958984 0.5
vt 0.974609 0.5

# verts
v -3.5 0 15
v -3.5 0 13
v -3.5 0 7
v -3.5 0 5
v -3.5 0 -0
v -3.5 0 -2
v -3.5 0 -8
v -3.5 0 -10
v -3.5 0 -13
v -3.5 0 -15
v -3.5 1 17
v -3.5 1 15
v -3.5 1 13
v -3.5 1 7
v -3.5 1 5
v -3.5 1 -0
v -3.5 1 -2
v -3.5 1 -8
v -3.5 1 -10
v -3.5 1 -13
v -3.5 1 -15
v -3.5 1 -17
v -3.5 2 17
v -3.5 2 16
v -3.5 2 -17
v -3.5 3 14
v -3.5 3 9
v -3.5 3 6
v -3.5 3 -1
v -3.5 3 -4
v -3.5 3 -9
v -3.5 3 -12
v -3.5 3 -16
v -3.5 5 17
v -3.5 5 16
v -3.5 5 14
v -3.5 5 9
v -3.5 5 6
v -3.5 5 -1
v -3.5 5 -4
v -3.5 5 -9
v -3.5 5 -12
v -3.5 5 -16
v -3.5 6 16
v -3.5 6 -17
v -2.5 6 14
v -2.5 6 -17
v -2.5 7 14
v -2.5 7 -17
v 2.5 0 15
v 2.5 0 13
v 2.5 0 7
v 2.5 0 5
v 2.5 0 -0
v 2.5 0 -2
v 2.5 0 -8
v 2.5 0 -10
v 2.5 0 -13
v 2.5 0 -15
v 2.5 1 15
v 2.5 1 13
v 2.5 1 7
v 2.5 1 5
v 2.5 1 -0
v 2.5 1 -2
v 2.5 1 -8
v 2.5 1 -10
v 2.5 1 -13
v 2.5 1 -15
v -2.5 0 15
v -2.5 0 13
v -2.5 0 7
v -2.5 0 5
v -2.5 0 -0
v -2.5 0 -2
v -2.5 0 -8
v -2.5 0 -10
v -2.5 0 -13
v -2.5 0 -15
v -2.5 1 15
v -2.5 1 13
v -2.5 1 7
v -2.5 1 5
v -2.5 1 -0
v -2.5 1 -2
v -2.5 1 -8
v -2.5 1 -10
v -2.5 1 -13
v -2.5 1 -15
v 2.5 6 14
v 2.5 6 -17
v 2.5 7 14
v 2.5 7 -17
v 3.5 0 15
v 3.5 0 13
v 3.5 0 7
v 3.5 0 5
v 3.5 0 -0
v 3.5 0 -2
v 3.5 0 -8
v 3.5 0 -10
v 3.5 0 -13
v 3.5 0 -15
v 3.5 1 17
v 3.5 1 15
v 3.5 1 13
v 3.5 1 7
v 3.5 1 5
v 3.5 1 -0
v 3.5 1 -2
v 3.5 1 -8
v 3.5 1 -10
v 3.5 1 -13
v 3.5 1 -15
v 3.5 1 -17
v 3.5 2 17
v 3.5 2 16
v 3.5 2 -17
v 3.5 3 14
v 3.5 3 9
v 3.5 3 6
v 3.5 3 -1
v 3.5 3 -4
v 3.5 3 -9
v 3.5 3 -12
v 3.5 3 -16
v 3.5 5 17
v 3.5 5 16
v 3.5 5 14
v 3.5 5 9
v 3.5 5 6
v 3.5 5 -1
v 3.5 5 -4
v 3.5 5 -9
v 3.5 5 -12
v 3.5 5 -16
v 3.5 6 16
v 3.5 6 -17
v -3.5 1 17
v -3.5 2 17
v -3.5 5 17
v 3.5 1 17
v 3.5 2 17
v 3.5 5 17
v -3.5 5 16
v -3.5 6 16
v 3.5 5 16
v 3.5 6 16
v -3.5 0 15
v -3.5 1 15
v -2.5 0 15
v -2.5 1 15
v 2.5 0 15
v 2.5 1 15
v 3.5 0 15
v 3.5 1 15
v -2.5 6 14
v -2.5 7 14
v 2.5 6 14
v 2.5 7 14
v -3.5 0 7
v -3.5 1 7
v -2.5 0 7
v -2.5 1 7
v 2.5 0 7
v 2.5 1 7
v 3.5 0 7
v 3.5 1 7
v -3.5 0 -0
v -3.5 1 -0
v -2.5 0 -0
v -2.5 1 -0
v 2.5 0 -0
v 2.5 1 -0
v 3.5 0 -0
v 3.5 1 -0
v -3.5 0 -8
v -3.5 1 -8
v -2.5 0 -8
v -2.5 1 -8
v 2.5 0 -8
v 2.5 1 -8
v 3.5 0 -8
v 3.5 1 -8
v -3.5 0 -13
v -3.5 1 -13
v -2.5 0 -13
v -2.5 1 -13
v 2.5 0 -13
v 2.5 1 -13
v 3.5 0 -13
v 3.5 1 -13
v -3.5 0 13
v -3.5 1 13
v -2.5 0 13
v -2.5 1 13
v 2.5 0 13
v 2.5 1 13
v 3.5 0 13
v 3.5 1 13
v -3.5 0 5
v -3.5 1 5
v -2.5 0 5
v -2.5 1 5
v 2.5 0 5
v 2.5 1 5
v 3.5 0 5
v 3.5 1 5
v -3.5 0 -2
v -3.5 1 -2
v -2.5 0 -2
v -2.5 1 -2
v 2.5 0 -2
v 2.5 1 -2
v 3.5 0 -2
v 3.5 1 -2
v -3.5 0 -10
v -3.5 1 -10
v -2.5 0 -10
v -2.5 1 -10
v 2.5 0 -10
v 2.5 1 -10
v 3.5 0 -10
v 3.5 1 -10
v -3.5 0 -15
v -3.5 1 -15
v -2.5 0 -15
v -2.5 1 -15
v 2.5 0 -15
v 2.5 1 -15
v 3.5 0 -15
v 3.5 1 -15
v -3.5 1 -17
v -3.5 2 -17
v -3.5 6 -17
v -2.5 6 -17
v -2.5 7 -17
v 2.5 6 -17
v 2.5 7 -17
v 3.5 1 -17
v 3.5 2 -17
v 3.5 6 -17
v -3.5 0 15
v -2.5 0 15
v 2.5 0 15
v 3.5 0 15
v -3.5 0 13
v -2.5 0 13
v 2.5 0 13
v 3.5 0 13
v -3.5 0 7
v -2.5 0 7
v 2.5 0 7
v 3.5 0 7
v -3.5 0 5
v -2.5 0 5
v 2.5 0 5
v 3.5 0 5
v -3.5 0 -0
v -2.5 0 -0
v 2.5 0 -0
v 3.5 0 -0
v -3.5 0 -2
v -2.5 0 -2
v 2.5 0 -2
v 3.5 0 -2
v -3.5 0 -8
v -2.5 0 -8
v 2.5 0 -8
v 3.5 0 -8
v -3.5 0 -10
v -2.5 0 -10
v 2.5 0 -10
v 3.5 0 -10
v -3.5 0 -13
v -2.5 0 -13
v 2.5 0 -13
v 3.5 0 -13
v -3.5 0 -15
v -2.5 0 -15
v 2.5 0 -15
v 3.5 0 -15
v -3.5 1 17
v 3.5 1 17
v -2.5 1 16
v 2.5 1 16
v -3.5 1 15
v -2.5 1 15
v 2.5 1 15
v 3.5 1 15
v -3.5 1 13
v -2.5 1 13
v 2.5 1 13
v 3.5 1 13
v -3.5 1 7
v -2.5 1 7
v 2.5 1 7
v 3.5 1 7
v -3.5 1 5
v -2.5 1 5
v 2.5 1 5
v 3.5 1 5
v -3.5 1 -0
v -2.5 1 -0
v 2.5 1 -0
v 3.5 1 -0
v -3.5 1 -2
v -2.5 1 -2
v 2.5 1 -2
v 3.5 1 -2
v -3.5 1 -8
v -2.5 1 -8
v 2.5 1 -8
v 3.5 1 -8
v -3.5 1 -10
v -2.5 1 -10
v 2.5 1 -10
v 3.5 1 -10
v -3.5 1 -13
v -2.5 1 -13
v 2.5 1 -13
v 3.5 1 -13
v -3.5 1 -15
v -2.5 1 -15
v 2.5 1 -15
v 3.5 1 -15
v -2.5 1 -16
v 2.5 1 -16
v -3.5 1 -17
v 3.5 1 -17
v -3.5 5 17
v 3.5 5 17
v -3.5 5 16
v 3.5 5 16
v -3.5 6 16
v 3.5 6 16
v -2.5 6 14
v 2.5 6 14
v -3.5 6 -17
v -2.5 6 -17
v 2.5 6 -17
v 3.5 6 -17
v -2.5 7 14
v 2.5 7 14
v -2.5 7 -17
v 2.5 7 -17

# faces
f 12/2/1 2/2/1 1/2/1
f 13/2/1 2/2/1 12/2/1
f 14/2/1 4/2/1 3/2/1
f 15/2/1 4/2/1 14/2/1
f 16/2/1 6/2/1 5/2/1
f 17/2/1 6/2/1 16/2/1
f 18/2/1 8/2/1 7/2/1
f 19/2/1 8/2/1 18/2/1
f 20/2/1 10/2/1 9/2/1
f 21/2/1 10/2/1 20/2/1
f 23/4/1 19/4/1 18/4/1
f 23/4/1 22/4/1 21/4/1
f 23/4/1 21/4/1 20/4/1
f 23/4/1 20/4/1 19/4/1
f 23/4/1 13/4/1 12/4/1
f 23/4/1 18/4/1 17/4/1
f 23/4/1 15/4/1 14/4/1
f 23/4/1 16/4/1 15/4/1
f 23/4/1 17/4/1 16/4/1
f 23/4/1 14/4/1 13/4/1
f 23/4/1 12/4/1 11/4/1
f 24/4/1 22/4/1 23/4/1
f 25/4/1 22/4/1 24/4/1
f 26/3/1 25/3/1 24/3/1
f 27/3/1 25/3/1 26/3/1
f 28/3/1 25/3/1 27/3/1
f 29/3/1 25/3/1 28/3/1
f 30/3/1 25/3/1 29/3/1
f 31/3/1 25/3/1 30/3/1
f 32/3/1 25/3/1 31/3/1
f 33/3/1 25/3/1 32/3/1
f 34/1/1 24/1/1 23/1/1
f 35/3/1 26/3/1 24/3/1
f 35/1/1 24/1/1 34/1/1
f 36/1/1 27/1/1 26/1/1
f 36/3/1 26/3/1 35/3/1
f 37/3/1 28/3/1 27/3/1
f 37/1/1 27/1/1 36/1/1
f 38/1/1 29/1/1 28/1/1
f 38/3/1 28/3/1 37/3/1
f 39/3/1 30/3/1 29/3/1
f 39/1/1 29/1/1 38/1/1
f 40/1/1 31/1/1 30/1/1
f 40/3/1 30/3/1 39/3/1
f 41/3/1 32/3/1 31/3/1
f 41/1/1 31/1/1 40/1/1
f 42/1/1 33/1/1 32/1/1
f 42/3/1 32/3/1 41/3/1
f 43/3/1 25/3/1 33/3/1
f 43/1/1 33/1/1 42/1/1
f 44/3/1 42/3/1 41/3/1
f 44/3/1 43/3/1 42/3/1
f 44/3/1 41/3/1 40/3/1
f 44/3/1 40/3/1 39/3/1
f 44/3/1 39/3/1 38/3/1
f 44/3/1 38/3/1 37/3/1
f 44/3/1 37/3/1 36/3/1
f 44/3/1 36/3/1 35/3/1
f 45/3/1 25/3/1 43/3/1
f 45/3/1 43/3/1 44/3/1
f 48/3/1 47/3/1 46/3/1
f 49/3/1 47/3/1 48/3/1
f 60/2/1 51/2/1 50/2/1
f 61/2/1 51/2/1 60/2/1
f 62/2/1 53/2/1 52/2/1
f 63/2/1 53/2/1 62/2/1
f 64/2/1 55/2/1 54/2/1
f 65/2/1 55/2/1 64/2/1
f 66/2/1 57/2/1 56/2/1
f 67/2/1 57/2/1 66/2/1
f 68/2/1 59/2/1 58/2/1
f 69/2/1 59/2/1 68/2/1
f 70/2/2 71/2/2 80/2/2
f 80/2/2 71/2/2 81/2/2
f 72/2/2 73/2/2 82/2/2
f 82/2/2 73/2/2 83/2/2
f 74/2/2 75/2/2 84/2/2
f 84/2/2 75/2/2 85/2/2
f 76/2/2 77/2/2 86/2/2
f 86/2/2 77/2/2 87/2/2
f 78/2/2 79/2/2 88/2/2
f 88/2/2 79/2/2 89/2/2
f 90/3/2 91/3/2 92/3/2
f 92/3/2 91/3/2 93/3/2
f 94/2/2 95/2/2 105/2/2
f 105/2/2 95/2/2 106/2/2
f 96/2/2 97/2/2 107/2/2
f 107/2/2 97/2/2 108/2/2
f 98/2/2 99/2/2 109/2/2
f 109/2/2 99/2/2 110/2/2
f 100/2/2 101/2/2 111/2/2
f 111/2/2 101/2/2 112/2/2
f 102/2/2 103/2/2 113/2/2
f 113/2/2 103/2/2 114/2/2
f 111/4/2 112/4/2 116/4/2
f 114/4/2 115/4/2 116/4/2
f 113/4/2 114/4/2 116/4/2
f 112/4/2 113/4/2 116/4/2
f 105/4/2 106/4/2 116/4/2
f 110/4/2 111/4/2 116/4/2
f 107/4/2 108/4/2 116/4/2
f 108/4/2 109/4/2 116/4/2
f 109/4/2 110/4/2 116/4/2
f 106/4/2 107/4/2 116/4/2
f 104/4/2 105/4/2 116/4/2
f 116/4/2 115/4/2 117/4/2
f 117/4/2 115/4/2 118/4/2
f 117/3/2 118/3/2 119/3/2
f 119/3/2 118/3/2 120/3/2
f 120/3/2 118/3/2 121/3/2
f 121/3/2 118/3/2 122/3/2
f 122/3/2 118/3/2 123/3/2
f 123/3/2 118/3/2 124/3/2
f 124/3/2 118/3/2 125/3/2
f 125/3/2 118/3/2 126/3/2
f 116/1/2 117/1/2 127/1/2
f 117/3/2 119/3/2 128/3/2
f 127/1/2 117/1/2 128/1/2
f 119/1/2 120/1/2 129/1/2
f 128/3/2 119/3/2 129/3/2
f 120/3/2 121/3/2 130/3/2
f 129/1/2 120/1/2 130/1/2
f 121/1/2 122/1/2 131/1/2
f 130/3/2 121/3/2 131/3/2
f 122/3/2 123/3/2 132/3/2
f 131/1/2 122/1/2 132/1/2
f 123/1/2 124/1/2 133/1/2
f 132/3/2 123/3/2 133/3/2
f 124/3/2 125/3/2 134/3/2
f 133/1/2 124/1/2 134/1/2
f 125/1/2 126/1/2 135/1/2
f 134/3/2 125/3/2 135/3/2
f 126/3/2 118/3/2 136/3/2
f 135/1/2 126/1/2 136/1/2
f 134/3/2 135/3/2 137/3/2
f 135/3/2 136/3/2 137/3/2
f 133/3/2 134/3/2 137/3/2
f 132/3/2 133/3/2 137/3/2
f 131/3/2 132/3/2 137/3/2
f 130/3/2 131/3/2 137/3/2
f 129/3/2 130/3/2 137/3/2
f 128/3/2 129/3/2 137/3/2
f 136/3/2 118/3/2 138/3/2
f 137/3/2 136/3/2 138/3/2
f 142/4/3 140/4/3 139/4/3
f 143/1/3 141/1/3 140/1/3
f 143/4/3 140/4/3 142/4/3
f 144/1/3 141/1/3 143/1/3
f 147/3/3 146/3/3 145/3/3
f 148/3/3 146/3/3 147/3/3
f 151/2/3 150/2/3 149/2/3
f 152/2/3 150/2/3 151/2/3
f 155/2/3 154/2/3 153/2/3
f 156/2/3 154/2/3 155/2/3
f 159/3/3 158/3/3 157/3/3
f 160/3/3 158/3/3 159/3/3
f 163/2/3 162/2/3 161/2/3
f 164/2/3 162/2/3 163/2/3
f 167/2/3 166/2/3 165/2/3
f 168/2/3 166/2/3 167/2/3
f 171/2/3 170/2/3 169/2/3
f 172/2/3 170/2/3 171/2/3
f 175/2/3 174/2/3 173/2/3
f 176/2/3 174/2/3 175/2/3
f 179/2/3 178/2/3 177/2/3
f 180/2/3 178/2/3 179/2/3
f 183/2/3 182/2/3 181/2/3
f 184/2/3 182/2/3 183/2/3
f 187/2/3 186/2/3 185/2/3
f 188/2/3 186/2/3 187/2/3
f 191/2/3 190/2/3 189/2/3
f 192/2/3 190/2/3 191/2/3
f 193/2/4 194/2/4 195/2/4
f 195/2/4 194/2/4 196/2/4
f 197/2/4 198/2/4 199/2/4
f 199/2/4 198/2/4 200/2/4
f 201/2/4 202/2/4 203/2/4
f 203/2/4 202/2/4 204/2/4
f 205/2/4 206/2/4 207/2/4
f 207/2/4 206/2/4 208/2/4
f 209/2/4 210/2/4 211/2/4
f 211/2/4 210/2/4 212/2/4
f 213/2/4 214/2/4 215/2/4
f 215/2/4 214/2/4 216/2/4
f 217/2/4 218/2/4 219/2/4
f 219/2/4 218/2/4 220/2/4
f 221/2/4 222/2/4 223/2/4
f 223/2/4 222/2/4 224/2/4
f 225/2/4 226/2/4 227/2/4
f 227/2/4 226/2/4 228/2/4
f 229/2/4 230/2/4 231/2/4
f 231/2/4 230/2/4 232/2/4
f 234/3/4 235/3/4 236/3/4
f 234/3/4 236/3/4 238/3/4
f 236/3/4 237/3/4 238/3/4
f 238/3/4 237/3/4 239/3/4
f 233/4/4 234/4/4 240/4/4
f 234/3/4 238/3/4 241/3/4
f 240/4/4 234/4/4 241/4/4
f 241/3/4 238/3/4 242/3/4
f 247/2/5 244/2/5 243/2/5
f 248/2/5 244/2/5 247/2/5
f 249/2/5 246/2/5 245/2/5
f 250/2/5 246/2/5 249/2/5
f 255/2/5 252/2/5 251/2/5
f 256/2/5 252/2/5 255/2/5
f 257/2/5 254/2/5 253/2/5
f 258/2/5 254/2/5 257/2/5
f 263/2/5 260/2/5 259/2/5
f 264/2/5 260/2/5 263/2/5
f 265/2/5 262/2/5 261/2/5
f 266/2/5 262/2/5 265/2/5
f 271/2/5 268/2/5 267/2/5
f 272/2/5 268/2/5 271/2/5
f 273/2/5 270/2/5 269/2/5
f 274/2/5 270/2/5 273/2/5
f 279/2/5 276/2/5 275/2/5
f 280/2/5 276/2/5 279/2/5
f 281/2/5 278/2/5 277/2/5
f 282/2/5 278/2/5 281/2/5
f 285/4/5 284/4/5 283/4/5
f 286/4/5 284/4/5 285/4/5
f 287/4/5 285/4/5 283/4/5
f 288/3/5 286/3/5 285/3/5
f 288/4/5 285/4/5 287/4/5
f 289/4/5 284/4/5 286/4/5
f 289/3/5 286/3/5 288/3/5
f 290/4/5 284/4/5 289/4/5
f 292/3/5 289/3/5 288/3/5
f 293/3/5 289/3/5 292/3/5
f 295/4/5 292/4/5 291/4/5
f 296/3/5 293/3/5 292/3/5
f 296/4/5 292/4/5 295/4/5
f 297/4/5 294/4/5 293/4/5
f 297/3/5 293/3/5 296/3/5
f 298/4/5 294/4/5 297/4/5
f 300/3/5 297/3/5 296/3/5
f 301/3/5 297/3/5 300/3/5
f 303/4/5 300/4/5 299/4/5
f 304/3/5 301/3/5 300/3/5
f 304/4/5 300/4/5 303/4/5
f 305/4/5 302/4/5 301/4/5
f 305/3/5 301/3/5 304/3/5
f 306/4/5 302/4/5 305/4/5
f 308/3/5 305/3/5 304/3/5
f 309/3/5 305/3/5 308/3/5
f 311/4/5 308/4/5 307/4/5
f 312/3/5 309/3/5 308/3/5
f 312/4/5 308/4/5 311/4/5
f 313/4/5 310/4/5 309/4/5
f 313/3/5 309/3/5 312/3/5
f 314/4/5 310/4/5 313/4/5
f 316/3/5 313/3/5 312/3/5
f 317/3/5 313/3/5 316/3/5
f 319/4/5 316/4/5 315/4/5
f 320/3/5 317/3/5 316/3/5
f 320/4/5 316/4/5 319/4/5
f 321/4/5 318/4/5 317/4/5
f 321/3/5 317/3/5 320/3/5
f 322/4/5 318/4/5 321/4/5
f 324/3/5 321/3/5 320/3/5
f 325/3/5 321/3/5 324/3/5
f 327/4/5 324/4/5 323/4/5
f 327/3/5 325/3/5 324/3/5
f 328/4/5 326/4/5 325/4/5
f 328/3/5 325/3/5 327/3/5
f 329/4/5 327/4/5 323/4/5
f 329/4/5 328/4/5 327/4/5
f 330/4/5 326/4/5 328/4/5
f 330/4/5 328/4/5 329/4/5
f 331/1/6 332/1/6 333/1/6
f 333/1/6 332/1/6 334/1/6
f 335/3/6 336/3/6 337/3/6
f 337/3/6 336/3/6 338/3/6
f 335/3/6 337/3/6 339/3/6
f 339/3/6 337/3/6 340/3/6
f 338/3/6 336/3/6 341/3/6
f 341/3/6 336/3/6 342/3/6
f 343/3/6 344/3/6 345/3/6
f 345/3/6 344/3/6 346/3/6
