# MagicaVoxel @ ephtracy

# material
mtllib frog.mtl
usemtl palette

# normals
vn -1 0 0
vn 1 0 0
vn 0 0 1
vn 0 0 -1
vn 0 -1 0
vn 0 1 0

# texcoords
vt 0.720703 0.5
vt 0.728516 0.5
vt 0.880859 0.5
vt 0.962891 0.5

# verts
v -3 0 4.5
v -3 0 -0.5
v -3 2 4.5
v -3 2 -0.5
v -2 2 3.5
v -2 2 0.5
v -2 3 3.5
v -2 3 0.5
v 1 3 3.5
v 1 3 0.5
v 1 4 3.5
v 1 4 0.5
v 2 0 4.5
v 2 0 3.5
v 2 0 0.5
v 2 0 -0.5
v 2 1 4.5
v 2 1 3.5
v 2 1 0.5
v 2 1 -0.5
v 2 4 3.5
v 2 4 0.5
v 2 5 3.5
v 2 5 0.5
v -1 1 4.5
v -1 1 3.5
v -1 1 0.5
v -1 1 -0.5
v -1 2 4.5
v -1 2 3.5
v -1 2 0.5
v -1 2 -0.5
v 0 0 4.5
v 0 0 3.5
v 0 0 0.5
v 0 0 -0.5
v 0 1 4.5
v 0 1 3.5
v 0 1 0.5
v 0 1 -0.5
v 3 0 3.5
v 3 0 0.5
v 3 1 3.5
v 3 1 0.5
v 3 2 3.5
v 3 2 0.5
v 3 4 2.5
v 3 4 1.5
v 3 5 2.5
v 3 5 1.5
v 4 0 4.5
v 4 0 3.5
v 4 0 0.5
v 4 0 -0.5
v 4 1 4.5
v 4 1 3.5
v 4 1 0.5
v 4 1 -0.5
v 4 4 3.5
v 4 4 2.5
v 4 4 1.5
v 4 4 0.5
v 4 5 3.5
v 4 5 2.5
v 4 5 1.5
v 4 5 0.5
v 5 2 3.5
v 5 2 0.5
v 5 4 3.5
v 5 4 0.5
v -3 0 4.5
v -3 2 4.5
v -1 1 4.5
v -1 2 4.5
v 0 0 4.5
v 0 1 4.5
v 2 0 4.5
v 2 1 4.5
v 4 0 4.5
v 4 1 4.5
v -2 2 3.5
v -2 3 3.5
v -1 1 3.5
v -1 2 3.5
v 0 0 3.5
v 0 1 3.5
v 1 3 3.5
v 1 4 3.5
v 2 0 3.5
v 2 1 3.5
v 2 4 3.5
v 2 5 3.5
v 3 1 3.5
v 3 2 3.5
v 3 4 3.5
v 3 5 3.5
v 4 4 3.5
v 4 5 3.5
v 5 2 3.5
v 5 4 3.5
v 3 4 1.5
v 3 5 1.5
v 4 4 1.5
v 4 5 1.5
v 3 0 0.5
v 3 1 0.5
v 4 0 0.5
v 4 1 0.5
v 3 0 3.5
v 3 1 3.5
v 4 0 3.5
v 4 1 3.5
v 3 4 2.5
v 3 5 2.5
v 4 4 2.5
v 4 5 2.5
v -2 2 0.5
v -2 3 0.5
v -1 1 0.5
v -1 2 0.5
v 0 0 0.5
v 0 1 0.5
v 1 3 0.5
v 1 4 0.5
v 2 0 0.5
v 2 1 0.5
v 2 4 0.5
v 2 5 0.5
v 3 1 0.5
v 3 2 0.5
v 3 4 0.5
v 3 5 0.5
v 4 4 0.5
v 4 5 0.5
v 5 2 0.5
v 5 4 0.5
v -3 0 -0.5
v -3 2 -0.5
v -1 1 -0.5
v -1 2 -0.5
v 0 0 -0.5
v 0 1 -0.5
v 2 0 -0.5
v 2 1 -0.5
v 4 0 -0.5
v 4 1 -0.5
v -3 0 4.5
v 0 0 4.5
v 2 0 4.5
v 4 0 4.5
v 0 0 3.5
v 2 0 3.5
v 3 0 3.5
v 4 0 3.5
v 0 0 0.5
v 2 0 0.5
v 3 0 0.5
v 4 0 0.5
v -3 0 -0.5
v 0 0 -0.5
v 2 0 -0.5
v 4 0 -0.5
v 3 2 3.5
v 5 2 3.5
v 3 2 0.5
v 5 2 0.5
v -1 1 4.5
v 0 1 4.5
v 2 1 4.5
v 4 1 4.5
v -1 1 3.5
v 0 1 3.5
v 2 1 3.5
v 3 1 3.5
v 4 1 3.5
v -1 1 0.5
v 0 1 0.5
v 2 1 0.5
v 3 1 0.5
v 4 1 0.5
v -1 1 -0.5
v 0 1 -0.5
v 2 1 -0.5
v 4 1 -0.5
v -3 2 4.5
v -1 2 4.5
v -2 2 3.5
v -1 2 3.5
v -2 2 0.5
v -1 2 0.5
v -3 2 -0.5
v -1 2 -0.5
v -2 3 3.5
v 1 3 3.5
v -2 3 0.5
v 1 3 0.5
v 1 4 3.5
v 2 4 3.5
v 4 4 3.5
v 5 4 3.5
v 3 4 2.5
v 4 4 2.5
v 3 4 1.5
v 4 4 1.5
v 1 4 0.5
v 2 4 0.5
v 4 4 0.5
v 5 4 0.5
v 2 5 3.5
v 3 5 3.5
v 4 5 3.5
v 3 5 2.5
v 4 5 2.5
v 3 5 1.5
v 4 5 1.5
v 2 5 0.5
v 3 5 0.5
v 4 5 0.5

# faces
f 3/3/1 2/3/1 1/3/1
f 4/3/1 2/3/1 3/3/1
f 7/3/1 6/3/1 5/3/1
f 8/3/1 6/3/1 7/3/1
f 11/3/1 10/3/1 9/3/1
f 12/3/1 10/3/1 11/3/1
f 17/3/1 14/3/1 13/3/1
f 18/3/1 14/3/1 17/3/1
f 19/3/1 16/3/1 15/3/1
f 20/3/1 16/3/1 19/3/1
f 23/3/1 22/3/1 21/3/1
f 24/3/1 22/3/1 23/3/1
f 25/3/2 26/3/2 29/3/2
f 29/3/2 26/3/2 30/3/2
f 27/3/2 28/3/2 31/3/2
f 31/3/2 28/3/2 32/3/2
f 33/3/2 34/3/2 37/3/2
f 37/3/2 34/3/2 38/3/2
f 35/3/2 36/3/2 39/3/2
f 39/3/2 36/3/2 40/3/2
f 41/3/2 42/3/2 43/3/2
f 43/3/2 42/3/2 44/3/2
f 43/3/2 44/3/2 45/3/2
f 45/3/2 44/3/2 46/3/2
f 47/3/2 48/3/2 49/3/2
f 49/3/2 48/3/2 50/3/2
f 51/3/2 52/3/2 55/3/2
f 55/3/2 52/3/2 56/3/2
f 53/3/2 54/3/2 57/3/2
f 57/3/2 54/3/2 58/3/2
f 59/4/2 60/4/2 63/4/2
f 63/4/2 60/4/2 64/4/2
f 61/4/2 62/4/2 65/4/2
f 65/4/2 62/4/2 66/4/2
f 67/3/2 68/3/2 69/3/2
f 69/3/2 68/3/2 70/3/2
f 73/3/3 72/3/3 71/3/3
f 74/3/3 72/3/3 73/3/3
f 75/3/3 73/3/3 71/3/3
f 76/3/3 73/3/3 75/3/3
f 79/3/3 78/3/3 77/3/3
f 80/3/3 78/3/3 79/3/3
f 84/3/3 82/3/3 81/3/3
f 86/3/3 84/3/3 83/3/3
f 87/3/3 82/3/3 84/3/3
f 87/3/3 86/3/3 85/3/3
f 87/3/3 84/3/3 86/3/3
f 89/3/3 87/3/3 85/3/3
f 89/3/3 88/3/3 87/3/3
f 90/3/3 88/3/3 89/3/3
f 91/3/3 88/3/3 90/3/3
f 93/3/3 92/3/3 91/3/3
f 93/3/3 91/3/3 90/3/3
f 94/3/3 92/3/3 93/3/3
f 95/3/3 92/3/3 94/3/3
f 96/3/3 92/3/3 95/3/3
f 97/3/3 95/3/3 94/3/3
f 97/4/3 96/4/3 95/4/3
f 98/4/3 96/4/3 97/4/3
f 99/3/3 97/3/3 94/3/3
f 100/3/3 97/3/3 99/3/3
f 103/4/3 102/4/3 101/4/3
f 104/4/3 102/4/3 103/4/3
f 107/3/3 106/3/3 105/3/3
f 108/3/3 106/3/3 107/3/3
f 109/3/4 110/3/4 111/3/4
f 111/3/4 110/3/4 112/3/4
f 113/4/4 114/4/4 115/4/4
f 115/4/4 114/4/4 116/4/4
f 117/3/4 118/3/4 120/3/4
f 119/3/4 120/3/4 122/3/4
f 120/3/4 118/3/4 123/3/4
f 121/3/4 122/3/4 123/3/4
f 122/3/4 120/3/4 123/3/4
f 121/3/4 123/3/4 125/3/4
f 123/3/4 124/3/4 125/3/4
f 125/3/4 124/3/4 126/3/4
f 126/3/4 124/3/4 127/3/4
f 127/3/4 128/3/4 129/3/4
f 126/3/4 127/3/4 129/3/4
f 129/3/4 128/3/4 130/3/4
f 130/3/4 128/3/4 131/3/4
f 131/3/4 128/3/4 132/3/4
f 130/3/4 131/3/4 133/3/4
f 131/4/4 132/4/4 133/4/4
f 133/4/4 132/4/4 134/4/4
f 130/3/4 133/3/4 135/3/4
f 135/3/4 133/3/4 136/3/4
f 137/3/4 138/3/4 139/3/4
f 139/3/4 138/3/4 140/3/4
f 137/3/4 139/3/4 141/3/4
f 141/3/4 139/3/4 142/3/4
f 143/3/4 144/3/4 145/3/4
f 145/3/4 144/3/4 146/3/4
f 151/3/5 148/3/5 147/3/5
f 152/3/5 150/3/5 149/3/5
f 153/3/5 150/3/5 152/3/5
f 154/3/5 150/3/5 153/3/5
f 155/3/5 151/3/5 147/3/5
f 155/3/5 152/3/5 151/3/5
f 155/3/5 153/3/5 152/3/5
f 156/3/5 153/3/5 155/3/5
f 157/3/5 153/3/5 156/3/5
f 159/3/5 155/3/5 147/3/5
f 160/3/5 155/3/5 159/3/5
f 161/3/5 158/3/5 157/3/5
f 161/3/5 157/3/5 156/3/5
f 162/3/5 158/3/5 161/3/5
f 165/3/5 164/3/5 163/3/5
f 166/3/5 164/3/5 165/3/5
f 167/3/6 168/3/6 171/3/6
f 171/3/6 168/3/6 172/3/6
f 169/3/6 170/3/6 173/3/6
f 173/3/6 170/3/6 174/3/6
f 174/3/6 170/3/6 175/3/6
f 176/3/6 177/3/6 181/3/6
f 181/3/6 177/3/6 182/3/6
f 179/3/6 180/3/6 183/3/6
f 178/3/6 179/3/6 183/3/6
f 183/3/6 180/3/6 184/3/6
f 185/3/6 186/3/6 187/3/6
f 187/3/6 186/3/6 188/3/6
f 185/3/6 187/3/6 189/3/6
f 185/3/6 189/3/6 191/3/6
f 189/3/6 190/3/6 191/3/6
f 191/3/6 190/3/6 192/3/6
f 193/3/6 194/3/6 195/3/6
f 195/3/6 194/3/6 196/3/6
f 199/3/6 200/3/6 202/3/6
f 201/3/6 202/3/6 203/3/6
f 202/3/6 200/3/6 204/3/6
f 203/3/6 202/3/6 204/3/6
f 197/3/6 198/3/6 205/3/6
f 205/3/6 198/3/6 206/3/6
f 204/3/6 200/3/6 207/3/6
f 207/3/6 200/3/6 208/3/6
f 209/3/6 210/3/6 212/3/6
f 210/4/6 211/4/6 212/4/6
f 212/4/6 211/4/6 213/4/6
f 209/3/6 212/3/6 214/3/6
f 209/3/6 214/3/6 216/3/6
f 214/4/6 215/4/6 217/4/6
f 216/3/6 214/3/6 217/3/6
f 217/4/6 215/4/6 218/4/6
